<?xml version="1.0" standalone="no"?><!DOCTYPE svg PUBLIC "-//W3C//DTD SVG 1.1//EN" "http://www.w3.org/Graphics/SVG/1.1/DTD/svg11.dtd"><svg class="icon" width="64px" height="64.00px" viewBox="0 0 1024 1024" version="1.1" xmlns="http://www.w3.org/2000/svg"><path  d="M728.7 684.4c12.5 12.8 12.5 33.8 0 46.7l-5.7 5.8c-12.5 12.8-33 12.8-45.6 0l-150-153.6-151 154.6c-12.5 12.8-33 12.8-45.6 0l-5.7-5.8c-12.5-12.8-12.5-33.8 0-46.7l151-154.6-151.9-155.6c-12.5-12.8-12.5-33.8 0-46.7l5.7-5.8c12.5-12.8 33-12.8 45.6 0l152 155.6 151-154.6c12.5-12.8 33.1-12.8 45.6 0l5.7 5.8c12.5 12.8 12.5 33.8 0 46.7l-151 154.6 149.9 153.6z m-522.6-95.8v-332c0-35.4 29.2-64.3 65-64.3h506.4v91.8c0 13.3 15.4 20.8 26 12.7l176-134.1c8.4-6.4 8.4-18.9 0-25.3L803.6 3.4c-10.6-8.1-26-0.7-26 12.6v91.8H271.1c-83 0-150.5 66.7-150.5 148.9v331.9m716.7-162.8v341.5c0 35.4-29.2 64.3-65 64.3H265.8v-91.8c0-13.3-15.4-20.8-26-12.7l-176 134.1c-8.4 6.4-8.4 18.9 0 25.3l176 134.1c10.6 8.1 26 0.7 26-12.6v-91.8h506.4c83 0 150.5-66.7 150.5-148.9V425.9" /></svg>
