<?xml version="1.0" standalone="no"?><!DOCTYPE svg PUBLIC "-//W3C//DTD SVG 1.1//EN" "http://www.w3.org/Graphics/SVG/1.1/DTD/svg11.dtd"><svg t="1640334587252" class="icon" viewBox="0 0 1024 1024" version="1.1" xmlns="http://www.w3.org/2000/svg" p-id="2357" xmlns:xlink="http://www.w3.org/1999/xlink" width="200" height="200"><defs><style type="text/css"></style></defs><path d="M760.55134815 843.40179753v82.85044938H263.44865185v-82.85044938h497.1026963z m165.70089876-745.65404444a82.85044939 82.85044939 0 0 1 82.85044939 82.85044938v497.10269629a82.85044939 82.85044939 0 0 1-82.85044939 82.85044939H97.74775309a82.85044939 82.85044939 0 0 1-82.85044939-82.85044939V180.59820247a82.85044939 82.85044939 0 0 1 82.85044939-82.85044938h828.50449382z m0 82.85044938H97.74775309v497.10269629h207.12612344v-207.12612345h82.85044939v207.12612345h82.85044939v-372.82702223h82.85044938v372.82702223h82.85044939v-289.97657284h82.85044939v289.97657284h207.12612344V180.59820247z" p-id="2358"></path></svg>