<?xml version="1.0" standalone="no"?><!DOCTYPE svg PUBLIC "-//W3C//DTD SVG 1.1//EN" "http://www.w3.org/Graphics/SVG/1.1/DTD/svg11.dtd"><svg t="1640334589023" class="icon" viewBox="0 0 1024 1024" version="1.1" xmlns="http://www.w3.org/2000/svg" p-id="2489" xmlns:xlink="http://www.w3.org/1999/xlink" width="200" height="200"><defs><style type="text/css"></style></defs><path d="M388.783596 193.601587a34.317716 34.317716 0 0 1 34.317716 34.37416c0 18.682835-14.901113 33.922611-33.471062 34.317716H100.977621c-17.66685 0-31.947084 13.998016-32.342189 31.326204v507.31518c0 17.441076 13.998016 31.664866 31.551978 32.116415h141.89924a34.317716 34.317716 0 0 1 34.317716 34.37416c0 18.682835-14.901113 33.922611-33.527506 34.317715H100.977621C45.775769 901.743137 0.903098 857.54779 0 802.628156V294.409878c0-55.145408 44.364679-99.905192 99.340756-100.808291H388.783596z m288.144637-71.344724c126.151472 0 228.257965 102.953147 228.257965 229.894829 0 77.553522-38.155881 146.188954-96.631463 187.844339 126.490133 52.492559 215.388822 176.950722 215.388821 322.123691 0 18.965053-15.352662 34.374159-34.317715 34.37416-18.682835 0-33.866167-14.957557-34.317716-33.527506v-0.79021c0-154.655496-125.81281-280.0732-281.089186-280.073201-153.695954 0-278.549223 122.934186-281.032741 275.444825l-0.056444 4.628376a34.317716 34.317716 0 1 1-68.635431 0c0-146.471172 90.535553-271.832433 218.775438-323.534781A230.041583 230.041583 0 0 1 448.557381 352.208136c0.112887-126.941682 102.275824-229.951273 228.370852-229.951273zM328.953368 558.904641a34.317716 34.317716 0 0 1 34.317716 34.37416c0 18.682835-14.901113 33.922611-33.471062 34.317715H134.618013a34.317716 34.317716 0 0 1-34.317715-34.374159c0-18.682835 14.901113-33.922611 33.471061-34.317716h195.182009z m347.974865-367.955903c-88.108478 0-159.678977 72.134936-159.678977 161.202954s71.514056 161.202954 159.678977 161.202955c88.108478 0 159.678977-72.134936 159.678977-161.202955s-71.514056-161.202954-159.678977-161.202954zM366.827031 374.61625a34.317716 34.317716 0 0 1 34.317716 34.374159c0 18.682835-14.901113 33.922611-33.471062 34.317716H134.618013a34.317716 34.317716 0 0 1-34.317715-34.37416c0-18.682835 14.901113-33.922611 33.471061-34.317715h233.055672z" p-id="2490"></path></svg>