<?xml version="1.0" standalone="no"?><!DOCTYPE svg PUBLIC "-//W3C//DTD SVG 1.1//EN" "http://www.w3.org/Graphics/SVG/1.1/DTD/svg11.dtd"><svg t="1640334577061" class="icon" viewBox="0 0 1024 1024" version="1.1" xmlns="http://www.w3.org/2000/svg" p-id="1822" xmlns:xlink="http://www.w3.org/1999/xlink" width="200" height="200"><defs><style type="text/css"></style></defs><path d="M753.53171437 827.24621275c-45.75747792 0-82.85085392-37.093376-82.85085392-82.8496403 0-45.75747792 37.093376-82.85085392 82.85085392-82.85085393 45.75747792 0 82.85085392 37.093376 82.85085393 82.85085393 0 45.7562643-37.093376 82.8496403-82.85085393 82.8496403z m0-62.13783705c11.43967289 0 20.71301689-9.27213037 20.71301688-20.71180325 0-11.43967289-9.273344-20.71301689-20.71301688-20.71301689s-20.71301689 9.273344-20.71301689 20.71301689c0 11.43845925 9.273344 20.71180325 20.71301689 20.71180325z m79.64565808-158.66386962H673.8860563l-79.64565808 137.95206637 79.64565808 137.95085274h159.29252978l79.6468717-137.95085274-79.6468717-137.95206637zM500.91956148 532.01502815C296.73608533 586.1210643 179.14993778 686.36929897 141.02619022 833.68937245c-7.88131082 30.45482192 10.41901037 61.53223585 40.87261867 69.41354667a56.95927941 56.95927941 0 0 0 14.26985719 1.81558992h303.23992651c25.73744355 0 46.60337778 20.86593422 46.60337778 46.60337778 0 25.73865718-20.86593422 46.60337778-46.60337778 46.60337777H196.16866608a150.16603497 150.16603497 0 0 1-37.62009126-4.78776889c-80.28888178-20.77733925-128.53430045-102.70947555-107.75817482-182.99835733 38.02908445-146.95719822 138.54067675-255.26029275 297.84534282-324.42747259-65.16948385-45.92374518-107.741184-121.76467437-107.741184-207.54887111C240.89455882 138.23104949 354.49271941 24.63288889 494.62446459 24.63288889c140.13053155 0 253.72869215 113.59816059 253.72869216 253.72990578 0 138.02609778-110.2109203 250.31111111-247.43359527 253.65223348z m495.61357274 233.09334755L892.97047703 944.48526222a41.42482015 41.42482015 0 0 1-35.87489185 20.7130169H649.96784355a41.42482015 41.42482015 0 0 1-35.87489185-20.7130169l-103.56387081-179.37688652a41.42482015 41.42482015 0 0 1 0-41.42482014l103.56265719-179.37688652a41.42482015 41.42482015 0 0 1 35.87489184-20.71180326H857.09558518a41.42482015 41.42482015 0 0 1 35.87489185 20.71180326L996.53434785 723.68355556a41.42482015 41.42482015 0 0 1 0 41.42482014z m-501.90866963-326.22364444c88.65321718 0 160.52193659-71.86750578 160.52193659-160.52193659 0-88.65564445-71.86871941-160.52315022-160.52193659-160.52315022-88.65564445 0-160.52315022 71.86871941-160.52315022 160.52315022 0 88.65443082 71.86871941 160.52193659 160.52315022 160.52193659z" p-id="1823"></path></svg>