<?xml version="1.0" standalone="no"?><!DOCTYPE svg PUBLIC "-//W3C//DTD SVG 1.1//EN" "http://www.w3.org/Graphics/SVG/1.1/DTD/svg11.dtd"><svg t="1640334565934" class="icon" viewBox="0 0 1024 1024" version="1.1" xmlns="http://www.w3.org/2000/svg" p-id="1423" xmlns:xlink="http://www.w3.org/1999/xlink" width="200" height="200"><defs><style type="text/css"></style></defs><path d="M147.91111111 75.09333333V2.27555555H2.27555555v1019.4488889h145.63555556v-72.81777778h-72.81777778V694.04444445h72.81777778v-72.81777778h-72.81777778V366.36444445h72.81777778v-72.81777778h-72.81777778V75.09333333h72.81777778zM1021.72444445 654.98453333v-67.51573333a28.60373333 28.60373333 0 0 0-22.9944889-28.04622222l-87.23342222-17.44213333a28.72888889 28.72888889 0 0 1-21.33333333-18.432q-4.33493333-11.93528889-9.68248889-23.35857778a28.74026667 28.74026667 0 0 1 2.03662222-28.14862222L931.84 398.00604445a28.60373333 28.60373333 0 0 0-3.57262222-36.1016889l-47.78666667-47.78666666a28.60373333 28.60373333 0 0 0-36.03342222-3.50435556l-74.02382222 49.3568a28.74026667 28.74026667 0 0 1-28.14862222 2.03662222q-11.37777778-5.33617778-23.35857778-9.68248888a28.72888889 28.72888889 0 0 1-18.432-21.33333334l-17.44213334-87.23342222A28.60373333 28.60373333 0 0 0 654.98453333 220.72888889h-67.51573333a28.60373333 28.60373333 0 0 0-28.04622222 22.99448889l-17.44213333 87.23342222a28.72888889 28.72888889 0 0 1-18.432 21.33333333q-11.93528889 4.33493333-23.35857778 9.68248889a28.74026667 28.74026667 0 0 1-28.14862222-2.03662222L398.00604445 310.61333333a28.60373333 28.60373333 0 0 0-36.1016889 3.57262222l-47.78666666 47.78666667a28.60373333 28.60373333 0 0 0-3.50435556 36.03342223l49.3568 74.02382222a28.74026667 28.74026667 0 0 1 2.03662222 28.14862222q-5.33617778 11.37777778-9.68248888 23.35857778a28.72888889 28.72888889 0 0 1-21.33333334 18.432l-87.23342222 17.44213333A28.60373333 28.60373333 0 0 0 220.72888889 587.4688v67.52711111a28.60373333 28.60373333 0 0 0 22.99448889 28.04622222l87.23342222 17.44213334a28.72888889 28.72888889 0 0 1 21.33333333 18.432q4.33493333 11.93528889 9.68248889 23.35857778a28.74026667 28.74026667 0 0 1-2.03662222 28.14862222L310.61333333 844.44728889a28.60373333 28.60373333 0 0 0 3.57262222 36.10168889l47.78666667 47.78666667a28.60373333 28.60373333 0 0 0 36.03342223 3.50435555l74.02382222-49.3568a28.74026667 28.74026667 0 0 1 28.14862222-2.03662222q11.37777778 5.33617778 23.35857778 9.68248889a28.72888889 28.72888889 0 0 1 18.432 21.33333333l17.44213333 87.23342222A28.60373333 28.60373333 0 0 0 587.4688 1021.72444445h67.52711111a28.60373333 28.60373333 0 0 0 28.04622222-22.9944889l17.44213334-87.23342222a28.72888889 28.72888889 0 0 1 18.432-21.33333333q11.93528889-4.33493333 23.35857778-9.68248889a28.74026667 28.74026667 0 0 1 28.14862222 2.03662222L844.44728889 931.84a28.60373333 28.60373333 0 0 0 36.10168889-3.57262222l47.78666667-47.78666667a28.60373333 28.60373333 0 0 0 3.50435555-36.03342222l-49.3568-74.02382222a28.74026667 28.74026667 0 0 1-2.03662222-28.14862222q5.33617778-11.37777778 9.68248889-23.35857778a28.72888889 28.72888889 0 0 1 21.33333333-18.432l87.23342222-17.44213334A28.60373333 28.60373333 0 0 0 1021.72444445 654.98453333z m-279.13102223 87.60888889A171.64515555 171.64515555 0 1 1 792.87182222 621.22666667a170.51875555 170.51875555 0 0 1-50.2784 121.36675555z" p-id="1424"></path></svg>