<?xml version="1.0" standalone="no"?><!DOCTYPE svg PUBLIC "-//W3C//DTD SVG 1.1//EN" "http://www.w3.org/Graphics/SVG/1.1/DTD/svg11.dtd"><svg t="1640334574029" class="icon" viewBox="0 0 1024 1024" version="1.1" xmlns="http://www.w3.org/2000/svg" p-id="1688" xmlns:xlink="http://www.w3.org/1999/xlink" width="200" height="200"><defs><style type="text/css"></style></defs><path d="M376.832 706.50311112c-9.32977778 0-18.65955555-3.52711111-25.71377778-10.69511112-14.22222222-14.22222222-14.22222222-37.31911111 0-51.54133333l131.18577778-131.18577778c15.92888889-15.92888889 41.984-15.92888889 57.91288889 0L671.40266667 644.26666667c14.22222222 14.22222222 14.22222222 37.31911111 0 51.54133333s-37.31911111 14.22222222-51.54133334 0l-108.65777778-108.65777778-108.65777777 108.65777778c-7.05422222 7.05422222-16.384 10.69511111-25.71377778 10.69511112z" p-id="1689"></path><path d="M511.20355555 956.13155556c-20.13866667 0-36.40888889-16.27022222-36.40888888-36.40888889v-314.02666667c0-20.13866667 16.27022222-36.40888889 36.40888888-36.40888888s36.40888889 16.27022222 36.4088889 36.40888888v314.02666667c0 20.02488889-16.27022222 36.40888889-36.4088889 36.40888889z" p-id="1690"></path><path d="M763.10755555 801.16622222c-20.13866667 0-36.40888889-16.27022222-36.40888888-36.40888888s16.27022222-36.40888889 36.40888888-36.40888889c103.08266667 0 186.93688889-83.85422222 186.9368889-186.93688889 0-94.32177778-70.42844445-174.08-163.84-185.57155556l-25.82755556-3.18577778-5.34755556-25.48622222c-23.66577778-113.664-125.26933333-196.15288889-241.664-196.15288888-116.28088889 0-217.88444445 82.48888889-241.664 196.15288888l-5.34755555 25.48622222-25.82755556 3.18577778c-93.41155555 11.49155555-163.84 91.24977778-163.84 185.57155556 0 103.08266667 83.85422222 186.93688889 186.93688889 186.93688889 20.13866667 0 36.40888889 16.27022222 36.40888889 36.40888889s-16.27022222 36.40888889-36.40888889 36.40888888c-69.40444445 0-134.59911111-27.07911111-183.75111111-76.11733333-49.03822222-49.03822222-76.11733333-114.34666667-76.11733333-183.75111111 0-122.42488889 85.56088889-227.21422222 202.752-253.49688889 17.97688889-61.21244445 54.272-116.28088889 103.87911111-157.12711111 57.00266667-46.87644445 129.024-72.704 202.86577777-72.704s145.97688889 25.82755555 202.86577778 72.704c49.60711111 40.84622222 85.90222222 95.91466667 103.87911112 157.12711111C937.41511111 314.08355556 1022.86222222 418.87288889 1022.86222222 541.29777778c0 69.40444445-27.07911111 134.59911111-76.11733333 183.75111111-49.03822222 49.03822222-114.23288889 76.11733333-183.63733334 76.11733333z" p-id="1691"></path></svg>