<?xml version="1.0" standalone="no"?><!DOCTYPE svg PUBLIC "-//W3C//DTD SVG 1.1//EN" "http://www.w3.org/Graphics/SVG/1.1/DTD/svg11.dtd"><svg t="1640334585439" class="icon" viewBox="0 0 1024 1024" version="1.1" xmlns="http://www.w3.org/2000/svg" p-id="2224" xmlns:xlink="http://www.w3.org/1999/xlink" width="200" height="200"><defs><style type="text/css"></style></defs><path d="M802.39502222 478.56071111c39.936-35.29386667 65.25155555-86.39146667 65.25155556-143.36 0-98.80462222-74.04657778-180.8384-172.2368-190.82808889-19.87697778-2.01386667-37.86524445 12.54968889-39.91324445 32.55182223-2.02524445 20.00213333 12.54968889 37.86524445 32.55182222 39.89048888 60.87111111 6.20088889 106.76906667 57.08231111 106.76906667 118.38577778 0 60.65493333-45.37457778 111.47946667-105.52888889 118.23786667-13.24373333 1.47911111-23.47235555 10.19448889-28.58097778 21.51537777-0.04551111 0.09102222-0.09102222 0.17066667-0.13653333 0.25031112-1.41084445 3.18577778-2.20728889 6.48533333-2.65102222 10.0352-0.22755555 1.31982222-0.93297778 2.44622222-1.00124445 3.81155555-0.05688889 1.01262222 0.39822222 1.88871111 0.42097778 2.87857778 0.03413333 0.60302222-0.21617778 1.13777778-0.14791111 1.7408 0.1024 0.91022222 0.60302222 1.6384 0.77368889 2.51448889 2.48035555 16.75946667 15.74684445 30.24213333 33.31413334 31.22062222 135.73688889 7.49795555 246.54506667 115.42755555 257.76355555 251.06204444 1.57013333 19.02364445 17.49902222 33.40515555 36.2496 33.40515556 1.00124445 0 2.01386667-0.03413333 3.03786667-0.12515556 20.03626667-1.64977778 34.92977778-19.23982222 33.28-39.28746666-11.09333333-134.07573333-99.29386667-246.4768-219.21564445-293.89937778z" p-id="2225"></path><path d="M539.4432 497.33404445c50.23288889-40.20906667 82.54577778-101.91075555 82.54577778-171.1104 0-120.88888889-98.34951111-219.2384-219.21564445-219.2384s-219.21564445 98.34951111-219.21564444 219.2384c0 69.18826667 32.31288889 130.90133333 82.54577778 171.1104C122.88 549.96764445 15.5648 682.15466667 2.40071111 841.19324445c-1.64977778 20.03626667 13.24373333 37.63768889 33.28 39.28746666 20.54826667 1.77493333 37.63768889-13.26648889 39.28746667-33.28C88.96284445 677.9904 232.96 545.43928889 402.77333333 545.43928889s313.81048889 132.55111111 327.80515556 301.76142222c1.57013333 19.02364445 17.49902222 33.40515555 36.2496 33.40515556 1.00124445 0 2.01386667-0.03413333 3.03786666-0.12515556 20.03626667-1.64977778 34.92977778-19.2512 33.28-39.28746666C789.98186667 682.15466667 682.66666667 549.96764445 539.4432 497.33404445zM256.37546667 326.22364445c0-80.72533333 65.67253333-146.42062222 146.39786666-146.42062223s146.39786667 65.68391111 146.39786667 146.42062223S483.49866667 472.62151111 402.77333333 472.62151111s-146.39786667-65.67253333-146.39786666-146.39786666z" p-id="2226"></path></svg>