<?xml version="1.0" standalone="no"?><!DOCTYPE svg PUBLIC "-//W3C//DTD SVG 1.1//EN" "http://www.w3.org/Graphics/SVG/1.1/DTD/svg11.dtd"><svg class="icon" width="64px" height="64.00px" viewBox="0 0 1024 1024" version="1.1" xmlns="http://www.w3.org/2000/svg"><path icon_text d="M700.49999999 712.4c12.5 12.79999999 12.5 33.8 0 46.7l-5.69999999 5.8c-12.5 12.79999999-33 12.8-45.6 0l-150-153.6-151 154.6c-12.5 12.79999999-33 12.8-45.6 0l-5.7-5.8c-12.5-12.79999999-12.5-33.8 0-46.7l151.00000001-154.6L296 403.2c-12.5-12.79999999-12.5-33.8 0-46.7l5.7-5.8c12.5-12.79999999 33-12.8 45.59999999 0l152.00000001 155.6 151-154.6c12.5-12.79999999 33.1-12.8 45.6 1e-8l5.7 5.79999999c12.5 12.79999999 12.5 33.8 0 46.7l-151.00000001 154.6 149.9 153.6z m269.90000002-566.1L785.2 3.59999999C774-5 757.8 2.9 757.8 17l0 97.7-533 0c-87.3 0-158.4 70.99999999-158.4 158.4l0 565.2c0 87.3 70.99999999 158.4 158.4 158.4l547.9 1e-8c87.3 0 158.4-70.99999999 158.4-158.4L931.1 416.6c0-24.9-20.1-45-45-45s-45 20.1-45 45l0 421.8c0 37.7-30.7 68.4-68.4 68.4L224.8 906.8c-37.7 0-68.4-30.7-68.4-68.4L156.4 273.09999999c0-37.7 30.7-68.4 68.4-68.39999999l533 1e-8 0 97.69999999c0 14.09999999 16.2 22.1 27.4 13.5l185.2-142.7c8.8-6.8 8.8-20.1 1e-8-26.9z" /></svg>
