<?xml version="1.0" standalone="no"?><!DOCTYPE svg PUBLIC "-//W3C//DTD SVG 1.1//EN" "http://www.w3.org/Graphics/SVG/1.1/DTD/svg11.dtd"><svg t="1640334571586" class="icon" viewBox="0 0 1024 1024" version="1.1" xmlns="http://www.w3.org/2000/svg" p-id="1555" xmlns:xlink="http://www.w3.org/1999/xlink" width="200" height="200"><defs><style type="text/css"></style></defs><path d="M948.90666667 2.27555555H196.44416C108.91719111 2.27555555 38.68444445 76.00355555 38.68444445 166.11555555c0 6.22592 1.12867555 12.16056889 1.74762666 18.20444445H38.68444445v655.36c0 100.16085333 77.98784 182.04444445 175.12675555 182.04444445H948.90666667V257.13777778H196.44416C149.95000889 257.13777778 111.50222222 216.76032 111.50222222 166.11555555S149.95000889 75.09333333 196.44416 75.09333333H948.90666667V2.27555555z m-491.52 327.68H657.63555555v195.91623112l-77.58734222-61.09411556a36.37248 36.37248 0 0 0-45.03779555 0L457.38666667 525.87178667V329.95555555z m-260.94250667 0H384.56888889v270.91854223a36.40888889 36.40888889 0 0 0 58.94599111 28.61738667l113.99623111-89.78432 113.99623111 89.78432A36.40888889 36.40888889 0 0 0 730.45333333 600.87409778V329.95555555h145.63555556v618.95111112H213.8112C157.70510222 948.90666667 111.50222222 900.37361778 111.50222222 839.68V303.81397333c24.50318222 16.34759111 53.52106667 26.14158222 84.94193778 26.14158222z" p-id="1556"></path><path d="M220.47402667 129.70666667H876.08888889v72.81777778H220.47402667z" p-id="1557"></path></svg>