<?xml version="1.0" standalone="no"?><!DOCTYPE svg PUBLIC "-//W3C//DTD SVG 1.1//EN" "http://www.w3.org/Graphics/SVG/1.1/DTD/svg11.dtd"><svg t="1640334579336" class="icon" viewBox="0 0 1024 1024" version="1.1" xmlns="http://www.w3.org/2000/svg" p-id="1954" xmlns:xlink="http://www.w3.org/1999/xlink" width="200" height="200"><defs><style type="text/css"></style></defs><path d="M166.78979478 227.40870637v226.80310518a414.25224651 414.25224651 0 0 0 170.60288314 334.99198381L512 916.24115041l174.60732208-127.03735505A414.25224651 414.25224651 0 0 0 857.21020522 454.21181155V227.40870637l-345.21020522-131.17987833-345.21020522 131.17987833z m-69.04204129-47.63900799L512 22.4919285l414.25224651 157.41585301v274.37307222a483.2942878 483.2942878 0 0 1-199.04820383 390.77795279L512 1001.64615585l-215.20404268-156.51830716A483.2942878 483.2942878 0 0 1 97.74775349 454.21181155V179.76969838z" p-id="1955"></path><path d="M512 546.52102004a138.08408257 138.08408257 0 1 1 0-276.16816394 138.08408257 138.08408257 0 0 1 0 276.16816394z m0-69.04204008a69.04204129 69.04204129 0 1 0 0-138.08408257 69.04204129 69.04204129 0 0 0 0 138.08408257z" p-id="1956"></path><path d="M477.47897996 512m34.52102004 0l0 0q34.52102004 0 34.52102004 34.52102004l0 177.02379458q0 34.52102004-34.52102004 34.52102005l0 0q-34.52102004 0-34.52102004-34.52102005l0-177.02379458q0-34.52102004 34.52102004-34.52102004Z" p-id="1957"></path><path d="M615.56306132 601.13327567m0 34.52102003l0 0q0 34.52102004-34.52102003 34.52102004l-65.58993978 0q-34.52102004 0-34.52102003-34.52102004l0 0q0-34.52102004 34.52102003-34.52102003l65.58993978 0q34.52102004 0 34.52102003 34.52102003Z" p-id="1958"></path></svg>