<?xml version="1.0" standalone="no"?><!DOCTYPE svg PUBLIC "-//W3C//DTD SVG 1.1//EN" "http://www.w3.org/Graphics/SVG/1.1/DTD/svg11.dtd"><svg t="1640334590852" class="icon" viewBox="0 0 1024 1024" version="1.1" xmlns="http://www.w3.org/2000/svg" p-id="2621" xmlns:xlink="http://www.w3.org/1999/xlink" width="200" height="200"><defs><style type="text/css"></style></defs><path d="M512 512m-77.8125 0a77.8125 77.8125 0 1 0 155.625 0 77.8125 77.8125 0 1 0-155.625 0Z" p-id="2622"></path><path d="M937.878125 418.25h-33.890625c-24.675 0-46.828125-15.103125-55.8375-38.071875-1.659375-4.21875-3.384375-8.390625-5.19375-12.534375-9.890625-22.65-4.96875-49.05 12.515625-66.525l23.971875-23.971875c21.13125-21.13125 21.13125-55.396875 0-76.5375l-56.04375-56.04375c-21.13125-21.13125-55.396875-21.13125-76.5375 0l-23.971875 23.971875c-17.484375 17.484375-43.875 22.40625-66.525 12.515625-4.134375-1.809375-8.315625-3.534375-12.534375-5.19375C620.853125 166.840625 605.75 144.6875 605.75 120.0125V86.121875C605.75 56.225 581.525 32 551.628125 32h-79.265625C442.475 32 418.25 56.225 418.25 86.121875v33.890625c0 24.675-15.103125 46.828125-38.071875 55.8375-4.21875 1.659375-8.390625 3.384375-12.534375 5.19375-22.65 9.890625-49.05 4.96875-66.525-12.515625l-23.971875-23.971875c-21.13125-21.13125-55.396875-21.13125-76.5375 0l-56.04375 56.04375c-21.13125 21.13125-21.13125 55.396875 0 76.5375l23.971875 23.971875c17.484375 17.484375 22.40625 43.875 12.515625 66.525-1.809375 4.134375-3.534375 8.315625-5.19375 12.534375C166.840625 403.146875 144.6875 418.25 120.0125 418.25H86.121875C56.225 418.25 32 442.475 32 472.371875v79.265625C32 581.525 56.225 605.75 86.121875 605.75h33.890625c24.675 0 46.828125 15.103125 55.8375 38.071875 1.659375 4.21875 3.384375 8.390625 5.19375 12.534375 9.890625 22.65 4.96875 49.05-12.515625 66.525l-23.971875 23.971875c-21.13125 21.13125-21.13125 55.396875 0 76.5375l56.04375 56.04375c21.13125 21.13125 55.396875 21.13125 76.5375 0l23.971875-23.971875c17.484375-17.484375 43.875-22.40625 66.525-12.515625 4.134375 1.809375 8.315625 3.534375 12.534375 5.19375 22.96875 9.009375 38.071875 31.171875 38.071875 55.8375v33.890625c0 29.8875 24.225 54.121875 54.121875 54.121875h79.265625c29.8875 0 54.121875-24.225 54.121875-54.121875v-33.890625c0-24.675 15.103125-46.828125 38.071875-55.8375 4.21875-1.659375 8.390625-3.384375 12.534375-5.19375 22.65-9.890625 49.05-4.96875 66.525 12.515625l23.971875 23.971875c21.13125 21.13125 55.396875 21.13125 76.5375 0l56.04375-56.04375c21.13125-21.13125 21.13125-55.396875 0-76.5375l-23.971875-23.971875c-17.484375-17.484375-22.40625-43.875-12.515625-66.525 1.809375-4.134375 3.534375-8.315625 5.19375-12.534375 9.009375-22.96875 31.171875-38.071875 55.8375-38.071875h33.890625c29.8875 0 54.121875-24.225 54.121875-54.121875v-79.265625c0.009375-29.8875-24.215625-54.1125-54.1125-54.1125zM512 746.375c-129.440625 0-234.375-104.934375-234.375-234.375s104.934375-234.375 234.375-234.375 234.375 104.934375 234.375 234.375-104.934375 234.375-234.375 234.375z" p-id="2623"></path></svg>