<?xml version="1.0" standalone="no"?><!DOCTYPE svg PUBLIC "-//W3C//DTD SVG 1.1//EN" "http://www.w3.org/Graphics/SVG/1.1/DTD/svg11.dtd"><svg t="1640327977537" class="icon" viewBox="0 0 1024 1024" version="1.1" xmlns="http://www.w3.org/2000/svg" p-id="19523" xmlns:xlink="http://www.w3.org/1999/xlink" width="200" height="200"><defs><style type="text/css"></style></defs><path d="M512 512m-83 0a83 83 0 1 0 166 0 83 83 0 1 0-166 0Z" p-id="19524"></path><path d="M966.27 412h-36.15c-26.32 0-49.95-16.11-59.56-40.61-1.77-4.5-3.61-8.95-5.54-13.37-10.55-24.16-5.3-52.32 13.35-70.96l25.57-25.57c22.54-22.54 22.54-59.09 0-81.64l-59.78-59.78c-22.54-22.54-59.09-22.54-81.64 0l-25.57 25.57c-18.65 18.65-46.8 23.9-70.96 13.35-4.41-1.93-8.87-3.77-13.37-5.54C628.11 143.83 612 120.2 612 93.88V57.73C612 25.84 586.16 0 554.27 0h-84.55C437.84 0 412 25.84 412 57.73v36.15c0 26.32-16.11 49.95-40.61 59.56-4.5 1.77-8.95 3.61-13.37 5.54-24.16 10.55-52.32 5.3-70.96-13.35l-25.57-25.57c-22.54-22.54-59.09-22.54-81.64 0l-59.78 59.78c-22.54 22.54-22.54 59.09 0 81.64l25.57 25.57c18.65 18.65 23.9 46.8 13.35 70.96-1.93 4.41-3.77 8.87-5.54 13.37C143.83 395.89 120.2 412 93.88 412H57.73C25.84 412 0 437.84 0 469.73v84.55C0 586.16 25.84 612 57.73 612h36.15c26.32 0 49.95 16.11 59.56 40.61 1.77 4.5 3.61 8.95 5.54 13.37 10.55 24.16 5.3 52.32-13.35 70.96l-25.57 25.57c-22.54 22.54-22.54 59.09 0 81.64l59.78 59.78c22.54 22.54 59.09 22.54 81.64 0l25.57-25.57c18.65-18.65 46.8-23.9 70.96-13.35 4.41 1.93 8.87 3.77 13.37 5.54 24.5 9.61 40.61 33.25 40.61 59.56v36.15c0 31.88 25.84 57.73 57.73 57.73h84.55c31.88 0 57.73-25.84 57.73-57.73v-36.15c0-26.32 16.11-49.95 40.61-59.56 4.5-1.77 8.95-3.61 13.37-5.54 24.16-10.55 52.32-5.3 70.96 13.35l25.57 25.57c22.54 22.54 59.09 22.54 81.64 0l59.78-59.78c22.54-22.54 22.54-59.09 0-81.64l-25.57-25.57c-18.65-18.65-23.9-46.8-13.35-70.96 1.93-4.41 3.77-8.87 5.54-13.37 9.61-24.5 33.25-40.61 59.56-40.61h36.15c31.88 0 57.73-25.84 57.73-57.73v-84.55c0.01-31.88-25.83-57.72-57.72-57.72zM512 762c-138.07 0-250-111.93-250-250s111.93-250 250-250 250 111.93 250 250-111.93 250-250 250z" p-id="19525"></path></svg>